#!OML:ASF I:\Actors\actors\Patient Classification 2\Patient 1\Session 1\actor1.ASF
:FULLY-SPECIFIED
:DEGREES
554
root -0.356939 18.0516 5.60289 -1.69492 -6.75723 -5.50271
lowerback 19.7491 0.950814 2.92489
upperback 7.91975 1.64135 -1.99816
thorax -2.33873 0.881807 -4.13596
lowerneck -2.42483 -12.4108 -9.42294
upperneck 34.0007 -22.9321 17.1786
head 15.9463 -9.64792 5.25186
rclavicle 7.95139e-015 3.18055e-015
rhumerus -52.6191 68.1416 -106.995
rradius 114.52
rwrist -86.2715
rhand 40.3239 -46.4701
rfingers 7.12502
rthumb 62.6631 662.887
lclavicle 7.95139e-015 3.18055e-015
lhumerus 43.0113 -67.9712 26.8236
lradius 113.476
lwrist 53.7053
lhand -9.00733 -15.1462
lfingers 7.12502
lthumb 16.9394 14.1351
rfemur 15.2659 0.348825 19.1641
rtibia -11.0112
rfoot -8.29303 -13.0004
rtoes -4.47855
lfemur 24.2318 0.663735 -13.5261
ltibia -27.9393
lfoot 5.29503 16.9323
ltoes -9.06348
555
root -0.336708 18.0564 5.61456 -1.69647 -6.1617 -5.52187
lowerback 19.5165 1.00244 3.6133
upperback 7.88039 1.83629 -1.88443
thorax -2.22048 0.993826 -4.44038
lowerneck -2.43061 -12.3839 -9.22623
upperneck 33.8578 -23.0078 17.5664
head 15.9432 -9.61652 5.37347
rclavicle -4.85035e-014 2.38542e-014
rhumerus -52.5488 68.2701 -107.937
rradius 113.983
rwrist -86.0008
rhand 40.125 -45.5143
rfingers 7.12502
rthumb 62.4988 663.627
lclavicle -4.85035e-014 2.38542e-014
lhumerus 43.6369 -67.3847 25.3985
lradius 113.577
lwrist 53.4594
lhand -8.00774 -15.3281
lfingers 7.12502
lthumb 17.9014 13.868
rfemur 15.1712 0.0598217 19.1058
rtibia -10.6109
rfoot -8.60704 -13.0907
rtoes -4.23809
lfemur 24.0843 0.376691 -13.5811
ltibia -27.8946
lfoot 5.35326 16.646
ltoes -9.05681
556
root -0.316909 18.0601 5.62872 -1.72042 -5.56635 -5.5372
lowerback 19.2588 1.07287 4.28918
upperback 7.86811 2.04932 -1.7559
thorax -2.05435 1.11688 -4.7221
lowerneck -2.52432 -12.3993 -8.98974
upperneck 33.8273 -23.0938 17.7408
head 15.971 -9.59023 5.39156
rclavicle -3.57812e-014 2.14687e-014
rhumerus -53.5997 68.9334 -109.927
rradius 113.367
rwrist -85.8817
rhand 40.6489 -41.9984
rfingers 7.12502
rthumb 62.9309 667.717
lclavicle -3.57812e-014 2.14687e-014
lhumerus 44.0525 -66.7671 24.2198
lradius 113.627
lwrist 52.8225
lhand -6.78726 -15.4849
lfingers 7.12502
lthumb 19.0754 13.5997
rfemur 15.1314 -0.227669 19.0414
rtibia -10.2499
rfoot -9.00652 -13.2032
rtoes -4.0957
lfemur 23.9851 0.0196698 -13.6508
ltibia -27.8547
lfoot 5.33218 16.4431
ltoes -8.74345
557
root -0.27695 18.0674 5.63434 -1.52141 -4.99263 -5.50122
lowerback 18.8987 1.09979 5.16628
upperback 7.76975 2.22998 -1.71003
thorax -1.91241 1.22771 -5.19713
lowerneck -2.67529 -12.4637 -8.6827
upperneck 33.9163 -23.2237 17.7324
head 16.0352 -9.57963 5.31031
rclavicle -8.74653e-015 -7.15625e-015
rhumerus -52.6929 69.1089 -109.861
rradius 113.039
rwrist -85.7559
rhand 40.5481 -41.8376
rfingers 7.12502
rthumb 62.8479 667.766
lclavicle -8.74653e-015 -7.15625e-015
lhumerus 44.2199 -66.1566 23.2395
lradius 113.711
lwrist 52.1592
lhand -5.61 -15.5577
lfingers 7.12502
lthumb 20.2072 13.4112
rfemur 14.646 -0.533867 18.866
rtibia -9.67028
rfoot -9.36104 -13.2766
rtoes -4.27154
lfemur 23.5818 -0.54524 -13.9026
ltibia -27.7965
lfoot 5.34442 16.5072
ltoes -8.57998
558
root -0.254735 18.0698 5.64207 -1.5541 -4.45916 -5.48076
lowerback 18.7439 1.2012 5.78609
upperback 7.71573 2.4696 -1.60984
thorax -1.83083 1.36087 -5.48376
lowerneck -2.70444 -12.5377 -8.34622
upperneck 33.8772 -23.3784 17.8196
head 16.0241 -9.58299 5.26304
rclavicle 2.06736e-014 -1.98785e-014
rhumerus -52.0787 69.1662 -110.029
rradius 112.786
rwrist -85.4536
rhand 40.761 -41.4678
rfingers 7.12502
rthumb 63.023 668.373
lclavicle 2.06736e-014 -1.98785e-014
lhumerus 44.3862 -65.6412 22.2274
lradius 113.793
lwrist 51.8668
lhand -4.94578 -15.8503
lfingers 7.12502
lthumb 20.8455 13.0498
rfemur 14.4728 -0.806323 18.7441
rtibia -9.09368
rfoot -9.78768 -13.2521
rtoes -4.18988
lfemur 23.4789 -0.854451 -14.0297
ltibia -27.7385
lfoot 5.39844 16.3342
ltoes -8.76534
559
root -0.266672 18.0701 5.66462 -1.75095 -3.72169 -5.49224
lowerback 18.5448 1.35073 5.97417
upperback 7.74368 2.69809 -1.38094
thorax -1.6689 1.48297 -5.37735
lowerneck -2.65922 -12.6272 -7.97116
upperneck 33.7071 -23.5437 17.9513
head 15.9316 -9.59454 5.22469
rclavicle -1.98785e-016 -9.54166e-015
rhumerus -51.2429 69.0521 -109.921
rradius 112.652
rwrist -85.3667
rhand 40.5878 -41.882
rfingers 7.12502
rthumb 62.8806 667.766
lclavicle -1.98785e-016 -9.54166e-015
lhumerus 44.5683 -65.255 21.2605
lradius 113.814
lwrist 51.7467
lhand -4.6752 -16.093
lfingers 7.12502
lthumb 21.1055 12.7783
rfemur 14.672 -1.30069 18.7225
rtibia -8.54341
rfoot -10.4226 -13.0766
rtoes -3.53727
lfemur 23.6088 -0.924937 -13.9234
ltibia -27.6747
lfoot 5.43729 15.7474
ltoes -8.7157
